# xmcd CD database file
#
# Track frame offsets:
#	225
#	13982
#	29232
#	42905
#	57082
#	76510
#	90227
#	104867
#	116707
#	125042
#	136167
#	152267
#
# Disc length: 2432 seconds
#
# Revision: 0
# Processed by: cddbd v1.5.2PL0 Copyright (c) Steve Scherf et al.
# Submitted via: CDex 1.51
#
DISCID=99097d0c
DTITLE=Varios - Jazz. Grandes maestros Vol 3
DYEAR=1996
DGENRE=Jazz
TTITLE0=01 C Jam Blues, Duke Ellington
TTITLE1=02 Friendly enemies. Sarah Vaughan
TTITLE2=03 Start hour de rose parish, Ella Fitgerald
TTITLE3=04 Fooling myself, Billy Hollyday
TTITLE4=05 C.C. Ryder, Charlie Rich
TTITLE5=06 Cotton Tail, Duke Ellington
TTITLE6=07 Flying Home, Ella Fitzgerald
TTITLE7=08 Cabaret, Louis Armstrong
TTITLE8=09 Five in the morning blues. Count Basie
TTITLE9=10 Misty, Sarah Vaughan
TTITLE10=11 Tonk, Duke Ellington
TTITLE11=12 La vie en rose. Louis Armstrong
EXTD=YEAR: 1996
EXTT0=
EXTT1=
EXTT2=
EXTT3=
EXTT4=
EXTT5=
EXTT6=
EXTT7=
EXTT8=
EXTT9=
EXTT10=
EXTT11=
PLAYORDER=
